<svg width="18" height="272" viewBox="0 0 18 272" fill="none" xmlns="http://www.w3.org/2000/svg">
<path d="M9.06527 22.2701C7.83527 22.2701 6.57527 21.9101 5.78027 21.4001L5.87027 19.0151H6.59027L7.22027 21.7001L6.39527 21.3401L6.27527 20.8151C7.25027 21.5051 7.88027 21.6851 8.91527 21.6851C10.4903 21.6851 11.4653 20.9651 11.4653 19.6301C11.4653 18.5651 10.9853 18.0101 9.51527 17.3801L8.84027 17.0951C6.96527 16.2851 5.99027 15.3251 5.99027 13.6901C5.99027 11.7551 7.58027 10.7051 9.71027 10.7051C10.8653 10.7051 11.7803 11.0201 12.5453 11.5451L12.4553 13.7951H11.7203L11.1203 11.2301L11.9753 11.6201L12.0653 12.1601C11.2553 11.5151 10.7303 11.2901 9.87527 11.2901C8.51027 11.2901 7.55027 11.9501 7.55027 13.1951C7.55027 14.2901 8.21027 14.8901 9.35027 15.3701L10.0703 15.6851C12.3353 16.6601 13.0853 17.5151 13.0853 19.1051C13.0853 21.0251 11.5553 22.2701 9.06527 22.2701Z" fill="#D95858"/>
<path d="M6.03461 70.0001V69.5801L8.14961 69.3401H9.46961L11.4196 69.5951V70.0301L6.03461 70.0001ZM8.01461 70.0001C8.04461 68.8451 8.05961 67.6751 8.05961 66.5351V59.8601L5.97461 60.1901V59.7251L9.36461 58.8701L9.58961 59.0351L9.52961 61.4201V66.5351C9.52961 67.6751 9.54461 68.8451 9.57461 70.0001H8.01461Z" fill="#D95858"/>
<path d="M9.15484 118.24C6.97984 118.24 5.83984 117.175 5.83984 115.615C5.83984 114.235 6.78484 113.29 8.59984 112.585V112.51L8.91484 112.72C7.62484 113.515 7.09984 114.28 7.09984 115.45C7.09984 116.92 7.89484 117.76 9.22984 117.76C10.5648 117.76 11.3448 116.965 11.3448 115.735C11.3448 114.625 10.7148 113.74 8.64484 112.84C6.88984 112.09 6.13984 110.95 6.13984 109.57C6.13984 107.875 7.51984 106.81 9.30484 106.81C11.2098 106.81 12.2598 107.89 12.2598 109.33C12.2598 110.395 11.5998 111.445 9.72484 112.21V112.27L9.46984 112.09C10.5948 111.295 11.0598 110.485 11.0598 109.285C11.0598 108.19 10.4298 107.29 9.25984 107.29C8.28484 107.29 7.41484 107.995 7.41484 109.165C7.41484 110.185 7.89484 111.115 9.79984 111.94C11.8548 112.84 12.6948 113.845 12.6948 115.315C12.6948 117.085 11.3298 118.24 9.15484 118.24Z" fill="#D95858"/>
<path d="M2.03461 166V165.58L4.14961 165.34H5.46961L7.41961 165.595V166.03L2.03461 166ZM4.01461 166C4.04461 164.845 4.05961 163.675 4.05961 162.535V155.86L1.97461 156.19V155.725L5.36461 154.87L5.58961 155.035L5.52961 157.42V162.535C5.52961 163.675 5.54461 164.845 5.57461 166H4.01461ZM11.7808 166.24C10.0709 166.24 8.91586 165.415 8.66086 163.99C8.78086 163.675 9.05086 163.51 9.36586 163.51C9.77086 163.51 10.0108 163.735 10.1159 164.35L10.5059 165.775L9.99586 165.355C10.5059 165.625 10.8959 165.76 11.5559 165.76C13.2209 165.76 14.1809 164.695 14.1809 162.775C14.1809 160.945 13.1909 160.06 11.6759 160.06C11.0459 160.06 10.4759 160.165 9.95086 160.39L9.56086 160.21L9.90586 155.035H15.4259V156.235H10.1609L10.4759 155.41L10.1459 160.12L9.66586 159.955C10.4609 159.565 11.2109 159.415 12.0959 159.415C14.3159 159.415 15.7408 160.555 15.7408 162.715C15.7408 164.875 14.1659 166.24 11.7808 166.24Z" fill="#D95858"/>
<path d="M0.929688 214V213.1C1.90469 211.96 2.87969 210.82 3.61469 209.965C5.21969 208.06 5.87969 207.025 5.87969 205.645C5.87969 204.13 5.11469 203.275 3.80969 203.275C3.28469 203.275 2.75969 203.41 2.15969 203.755L2.80469 203.32L2.41469 204.82C2.27969 205.495 1.97969 205.69 1.61969 205.69C1.30469 205.69 1.03469 205.51 0.929688 205.195C1.15469 203.62 2.63969 202.81 4.25969 202.81C6.34469 202.81 7.37969 203.92 7.37969 205.69C7.37969 207.115 6.38969 208.225 4.00469 210.535C3.52469 211.015 2.56469 212.035 1.58969 213.04L1.73969 212.56V212.8H7.79969V214H0.929688ZM9.46973 214V213.1C10.4447 211.96 11.4197 210.82 12.1547 209.965C13.7597 208.06 14.4197 207.025 14.4197 205.645C14.4197 204.13 13.6547 203.275 12.3497 203.275C11.8247 203.275 11.2997 203.41 10.6997 203.755L11.3447 203.32L10.9547 204.82C10.8197 205.495 10.5197 205.69 10.1597 205.69C9.84473 205.69 9.57473 205.51 9.46973 205.195C9.69473 203.62 11.1797 202.81 12.7997 202.81C14.8847 202.81 15.9197 203.92 15.9197 205.69C15.9197 207.115 14.9297 208.225 12.5447 210.535C12.0647 211.015 11.1047 212.035 10.1297 213.04L10.2797 212.56V212.8H16.3397V214H9.46973Z" fill="#D95858"/>
</svg>
