<svg width="33" height="224" viewBox="0 0 33 224" fill="none" xmlns="http://www.w3.org/2000/svg">
<path d="M16.5 224C25.6127 224 33 216.613 33 207.5C33 198.387 25.6127 191 16.5 191C7.3873 191 0 198.387 0 207.5C0 216.613 7.3873 224 16.5 224Z" fill="#B99493"/>
<path d="M16.0653 22.2701C14.8353 22.2701 13.5753 21.9101 12.7803 21.4001L12.8703 19.0151H13.5903L14.2203 21.7001L13.3953 21.3401L13.2753 20.8151C14.2503 21.5051 14.8803 21.6851 15.9153 21.6851C17.4903 21.6851 18.4653 20.9651 18.4653 19.6301C18.4653 18.5651 17.9853 18.0101 16.5153 17.3801L15.8403 17.0951C13.9653 16.2851 12.9903 15.3251 12.9903 13.6901C12.9903 11.7551 14.5803 10.7051 16.7103 10.7051C17.8653 10.7051 18.7803 11.0201 19.5453 11.5451L19.4553 13.7951H18.7203L18.1203 11.2301L18.9753 11.6201L19.0653 12.1601C18.2553 11.5151 17.7303 11.2901 16.8753 11.2901C15.5103 11.2901 14.5503 11.9501 14.5503 13.1951C14.5503 14.2901 15.2103 14.8901 16.3503 15.3701L17.0703 15.6851C19.3353 16.6601 20.0853 17.5151 20.0853 19.1051C20.0853 21.0251 18.5553 22.2701 16.0653 22.2701Z" fill="#5B5651"/>
<path d="M14.2798 70.0002L14.1598 69.8952L18.9448 59.7702L18.7798 60.4752V60.2352H12.8398V59.0352H19.4698V59.8002L15.5398 70.0002H14.2798Z" fill="#5B5651"/>
<path d="M9.03461 118V117.58L11.1496 117.34H12.4696L14.4196 117.595V118.03L9.03461 118ZM11.0146 118C11.0446 116.845 11.0596 115.675 11.0596 114.535V107.86L8.97461 108.19V107.725L12.3646 106.87L12.5896 107.035L12.5296 109.42V114.535C12.5296 115.675 12.5446 116.845 12.5746 118H11.0146ZM20.0859 118.27V114.85V107.845H19.8909L20.4309 107.62L18.2859 110.965L16.0059 114.505L16.1409 113.98V114.19H23.1759V115.195H15.5258V114.385L20.4159 106.855H21.4209V118.27H20.0859Z" fill="#5B5651"/>
<path d="M8.92969 166V165.1C9.90469 163.96 10.8797 162.82 11.6147 161.965C13.2197 160.06 13.8797 159.025 13.8797 157.645C13.8797 156.13 13.1147 155.275 11.8097 155.275C11.2847 155.275 10.7597 155.41 10.1597 155.755L10.8047 155.32L10.4147 156.82C10.2797 157.495 9.97969 157.69 9.61969 157.69C9.30469 157.69 9.03469 157.51 8.92969 157.195C9.15469 155.62 10.6397 154.81 12.2597 154.81C14.3447 154.81 15.3797 155.92 15.3797 157.69C15.3797 159.115 14.3897 160.225 12.0047 162.535C11.5247 163.015 10.5647 164.035 9.58969 165.04L9.73969 164.56V164.8H15.7997V166H8.92969ZM17.5747 166V165.58L19.6897 165.34H21.0097L22.9597 165.595V166.03L17.5747 166ZM19.5547 166C19.5847 164.845 19.5997 163.675 19.5997 162.535V155.86L17.5147 156.19V155.725L20.9047 154.87L21.1297 155.035L21.0697 157.42V162.535C21.0697 163.675 21.0847 164.845 21.1147 166H19.5547Z" fill="#5B5651"/>
<path d="M8.92969 213V212.1C9.90469 210.96 10.8797 209.82 11.6147 208.965C13.2197 207.06 13.8797 206.025 13.8797 204.645C13.8797 203.13 13.1147 202.275 11.8097 202.275C11.2847 202.275 10.7597 202.41 10.1597 202.755L10.8047 202.32L10.4147 203.82C10.2797 204.495 9.97969 204.69 9.61969 204.69C9.30469 204.69 9.03469 204.51 8.92969 204.195C9.15469 202.62 10.6397 201.81 12.2597 201.81C14.3447 201.81 15.3797 202.92 15.3797 204.69C15.3797 206.115 14.3897 207.225 12.0047 209.535C11.5247 210.015 10.5647 211.035 9.58969 212.04L9.73969 211.56V211.8H15.7997V213H8.92969ZM20.6947 213.24C18.5197 213.24 17.3797 212.175 17.3797 210.615C17.3797 209.235 18.3247 208.29 20.1397 207.585V207.51L20.4547 207.72C19.1647 208.515 18.6397 209.28 18.6397 210.45C18.6397 211.92 19.4347 212.76 20.7697 212.76C22.1047 212.76 22.8847 211.965 22.8847 210.735C22.8847 209.625 22.2547 208.74 20.1847 207.84C18.4297 207.09 17.6797 205.95 17.6797 204.57C17.6797 202.875 19.0597 201.81 20.8447 201.81C22.7497 201.81 23.7997 202.89 23.7997 204.33C23.7997 205.395 23.1397 206.445 21.2647 207.21V207.27L21.0097 207.09C22.1347 206.295 22.5997 205.485 22.5997 204.285C22.5997 203.19 21.9697 202.29 20.7997 202.29C19.8247 202.29 18.9547 202.995 18.9547 204.165C18.9547 205.185 19.4347 206.115 21.3397 206.94C23.3947 207.84 24.2347 208.845 24.2347 210.315C24.2347 212.085 22.8697 213.24 20.6947 213.24Z" fill="white"/>
</svg>
