<svg width="18" height="272" viewBox="0 0 18 272" fill="none" xmlns="http://www.w3.org/2000/svg">
<path d="M2.50977 21.9996V21.5346L4.24977 21.3246H4.56477L6.33477 21.5346V21.9996H2.50977ZM2.61477 11.4546V10.9746H4.78977V11.6346H4.62477L2.61477 11.4546ZM4.05477 21.9996L4.09977 10.9746H4.60977L4.71477 16.4346V21.9996H4.05477ZM8.50977 21.9996L4.35477 11.5446H4.24977V10.9746H5.94477L9.55977 20.1396H9.19977L9.28977 19.9146L12.7848 10.9746H13.4748V11.5446H13.1748L12.9948 11.9946L9.12477 21.9996H8.50977ZM11.3598 21.9996V21.5346L13.5498 21.3246H13.9098L16.1298 21.5346V21.9996H11.3598ZM12.7998 21.9996C12.8448 20.3046 12.8298 18.5796 12.8448 17.1096L12.9048 10.9746H14.6598C14.6148 12.6696 14.6148 14.3946 14.6148 16.1196V16.8696C14.6148 18.6096 14.6148 20.3196 14.6598 21.9996H12.7998ZM13.7148 11.6346V10.9746H16.0998V11.4546L13.9098 11.6346H13.7148Z" fill="#5B5651"/>
<path d="M5.92969 69.9996V69.0996C6.90469 67.9596 7.87969 66.8196 8.61469 65.9646C10.2197 64.0596 10.8797 63.0246 10.8797 61.6446C10.8797 60.1296 10.1147 59.2746 8.80969 59.2746C8.28469 59.2746 7.75969 59.4096 7.15969 59.7546L7.80469 59.3196L7.41469 60.8196C7.27969 61.4946 6.97969 61.6896 6.61969 61.6896C6.30469 61.6896 6.03469 61.5096 5.92969 61.1946C6.15469 59.6196 7.63969 58.8096 9.25969 58.8096C11.3447 58.8096 12.3797 59.9196 12.3797 61.6896C12.3797 63.1146 11.3897 64.2246 9.00469 66.5346C8.52469 67.0146 7.56469 68.0346 6.58969 69.0396L6.73969 68.5596V68.7996H12.7997V69.9996H5.92969Z" fill="#5B5651"/>
<path d="M6.575 118.255L6.47 117.865C9.785 116.695 11.285 114.445 11.285 111.19C11.285 108.49 10.385 107.275 9.215 107.275C8.12 107.275 7.22 108.25 7.22 110.17C7.22 111.97 8.15 113.02 9.485 113.02C10.28 113.02 10.955 112.66 11.51 111.955L11.825 112.03H11.69C11.21 113.005 10.235 113.635 8.945 113.635C7.1 113.635 5.75 112.375 5.75 110.335C5.75 108.115 7.265 106.81 9.215 106.81C11.405 106.81 12.77 108.49 12.77 111.28C12.77 114.61 10.55 117.295 6.575 118.255Z" fill="#5B5651"/>
<path d="M2.03461 166V165.58L4.14961 165.34H5.46961L7.41961 165.595V166.03L2.03461 166ZM4.01461 166C4.04461 164.845 4.05961 163.675 4.05961 162.535V155.86L1.97461 156.19V155.725L5.36461 154.87L5.58961 155.035L5.52961 157.42V162.535C5.52961 163.675 5.54461 164.845 5.57461 166H4.01461ZM12.4408 166.24C10.1909 166.24 8.81086 164.53 8.81086 161.815C8.81086 158.305 11.3759 155.26 15.4259 154.81L15.4859 155.14C12.0809 155.89 10.3409 158.44 10.3409 161.62C10.3409 164.29 11.1359 165.76 12.4559 165.76C13.5359 165.76 14.3759 164.74 14.3759 162.775C14.3759 160.975 13.6409 160.015 12.4109 160.015C11.6159 160.015 10.8959 160.33 10.1609 161.155L9.87586 160.975H9.98086C10.7459 159.895 11.7359 159.355 12.9359 159.355C14.7659 159.355 15.8459 160.69 15.8459 162.67C15.8459 164.725 14.4359 166.24 12.4408 166.24Z" fill="#5B5651"/>
<path d="M0.929688 214V213.1C1.90469 211.96 2.87969 210.82 3.61469 209.965C5.21969 208.06 5.87969 207.025 5.87969 205.645C5.87969 204.13 5.11469 203.275 3.80969 203.275C3.28469 203.275 2.75969 203.41 2.15969 203.755L2.80469 203.32L2.41469 204.82C2.27969 205.495 1.97969 205.69 1.61969 205.69C1.30469 205.69 1.03469 205.51 0.929688 205.195C1.15469 203.62 2.63969 202.81 4.25969 202.81C6.34469 202.81 7.37969 203.92 7.37969 205.69C7.37969 207.115 6.38969 208.225 4.00469 210.535C3.52469 211.015 2.56469 212.035 1.58969 213.04L1.73969 212.56V212.8H7.79969V214H0.929688ZM12.4547 214.24C10.6247 214.24 9.49973 213.46 9.21473 212.005C9.33473 211.675 9.58973 211.495 9.90473 211.495C10.3097 211.495 10.5497 211.72 10.6847 212.365L11.0747 213.82L10.4597 213.34C10.9547 213.61 11.3897 213.76 12.0197 213.76C13.6697 213.76 14.5997 212.755 14.5997 211.15C14.5997 209.47 13.6997 208.525 11.9447 208.525H11.2847V208H11.8697C13.3097 208 14.3147 207.13 14.3147 205.495C14.3147 204.085 13.5947 203.275 12.3197 203.275C11.7797 203.275 11.2847 203.38 10.6847 203.68L11.3897 203.26L10.9997 204.64C10.8647 205.195 10.5947 205.375 10.2047 205.375C9.91973 205.375 9.67973 205.24 9.57473 204.985C9.79973 203.44 11.1647 202.81 12.6797 202.81C14.6747 202.81 15.7997 203.875 15.7997 205.45C15.7997 206.89 14.7647 208.09 12.5597 208.33V208.165C15.0497 208.285 16.1147 209.455 16.1147 211.18C16.1147 213.025 14.6447 214.24 12.4547 214.24Z" fill="#5B5651"/>
</svg>
